# xmcd CD database file
#
# Track frame offsets:
#	150
#	25650
#	52411
#	73861
#	111811
#	128990
#
# Disc length: 1981 seconds
#
# Revision: 0
# Processed by: cddbd v1.5.2PL0 Copyright (c) Steve Scherf et al.
# Submitted via: CDex 1.70beta2
#
DISCID=5707bb06
DTITLE=The Jazz Crusaders - Freedom Sound
DYEAR=1961
DGENRE=Jazz
TTITLE0=The Geek
TTITLE1=M.J.S. Funk
TTITLE2=That's It
TTITLE3=Freedom Sound
TTITLE4=Theme From Exodus
TTITLE5=Coon
EXTD=YEAR: 1961
EXTT0=
EXTT1=
EXTT2=
EXTT3=
EXTT4=
EXTT5=
PLAYORDER=
